PathFileType	4	(X/Y/Z)	OpenSim_Sub05_CSBaseline_Gyro.trc
DataRate	CameraRate	NumFrames	NumMarkers	Units	OrigDataRate	OrigDataStartFrame	OrigNumFrames
100	100	40	8	m	100	1320	10557
Frame#	Time	torso_imu_offset_imu	pelvis_imu_offset_imu	tibia_r_imu_offset_imu	femur_r_imu_offset_imu	tibia_l_imu_offset_imu	femur_l_imu_offset_imu	toes_r_imu_offset_imu	toes_l_imu_offset_imu
				X1	Y1	Z1	X2	Y2	Z2	X3	Y3	Z3	X4	Y4	Z4	X5	Y5	Z5	X6	Y6	Z6	X7	Y7	Z7	X8		Y8	Z8	

1320	13.19000000	0.75137163	-0.02625379	0.23758324	0.12731732	0.02004191	-0.08276545	-0.03150276	-0.05433442	-0.74900771	-0.14022363	-0.14576240	-0.65281762	-0.18535670	0.87736637	-4.25753328	-0.32001701	-0.18177441	-0.27439176	0.02604768	-0.15147554	-0.17862921	0.10124237	4.03152587	-0.85878957
1321	13.20000000	0.73031797	-0.01968720	0.24102481	0.11227482	0.01774474	-0.04855064	-0.03094856	-0.04862624	-0.75532646	-0.03869324	-0.07529096	-0.64345863	-0.13311468	0.92097907	-4.37195431	-0.19512144	-0.27673380	-0.18287476	0.01354585	-0.14132261	-0.19402696	0.17759585	3.91201862	-0.80087642
1322	13.21000000	0.70811169	-0.01662070	0.22830453	0.08393607	0.02667428	-0.01465219	-0.02233094	-0.03653186	-0.75249498	0.10186619	0.01610664	-0.63458898	0.02246377	0.98017473	-4.48650604	-0.08958098	-0.40436443	-0.07934271	0.02513691	-0.14604235	-0.20941863	0.32173871	3.85449560	-0.79041751
1323	13.22000000	0.68752787	-0.00153268	0.20873865	0.04756143	0.01603953	0.02258258	-0.03037003	-0.02893781	-0.75601829	0.28209575	-0.04605943	-0.63643513	0.15744034	1.01697060	-4.48618528	0.08394086	-0.53193030	0.07950445	0.00803272	-0.17354355	-0.21814189	0.38124330	3.95075451	-0.83190208
1324	13.23000000	0.65862114	0.00381052	0.17847007	0.01621288	-0.01010354	0.04492638	-0.05698254	-0.01938296	-0.79308931	0.43337643	-0.09947736	-0.61993723	0.16139916	0.99532589	-4.35091609	0.25393909	-0.64182380	0.27818892	-0.02619654	-0.20693418	-0.22881270	0.32445194	4.01727091	-0.91071297
1325	13.24000000	0.63153873	0.01275994	0.15280460	-0.01778137	-0.02915079	0.05093284	-0.10606163	-0.00878418	-0.81839316	0.47773539	-0.10303221	-0.61067897	-0.02125649	0.88046005	-4.19558032	0.27460274	-0.73304215	0.51071806	-0.02499868	-0.23588282	-0.24333904	0.22691342	3.92519039	-1.03059871
1326	13.25000000	0.60496665	0.02760426	0.12285026	-0.04636739	-0.03946909	0.05429906	-0.13008981	0.00321503	-0.83013861	0.40914957	-0.13235164	-0.58472580	-0.26925427	0.77224741	-4.06273104	0.04036666	-0.75529396	0.70673997	-0.00805753	-0.28360243	-0.27823677	0.20621641	3.69190494	-1.23533957
1327	13.26000000	0.57178332	0.04114280	0.11240686	-0.06249848	-0.07455394	0.06366757	-0.15103144	0.01717183	-0.87774913	0.24555685	-0.11494552	-0.53539783	-0.55297555	0.72826409	-3.84943360	-0.31642250	-0.64336489	0.79789508	0.00706516	-0.33634478	-0.29399432	0.22188121	3.43871870	-1.49207966
1328	13.27000000	0.52899709	0.03586502	0.08478617	-0.07762674	-0.16213717	0.07526868	-0.15695824	0.04071953	-0.94173622	0.08255565	-0.05148699	-0.49759855	-0.66123491	0.66347176	-3.60631626	-0.64295753	-0.43099599	0.75557277	-0.00955857	-0.40303146	-0.28905623	0.15816432	3.20614034	-1.71941494
1329	13.28000000	0.46421472	0.04908974	0.05759027	-0.06290801	-0.21966517	0.08671977	-0.13208633	0.05753546	-0.99942065	-0.00108732	-0.03049589	-0.45419890	-0.54594308	0.56680229	-3.33924650	-0.90260085	-0.25849117	0.63968885	-0.01636555	-0.49634411	-0.28451016	0.09419265	2.95203228	-1.83531949
1330	13.29000000	0.40253992	0.05935865	0.04747062	-0.05879849	-0.25719737	0.07815151	-0.14750250	0.06937504	-1.04384741	-0.08096719	-0.01003296	-0.41156858	-0.35133891	0.46058666	-3.01533143	-0.91704255	-0.23600309	0.42167647	-0.05676125	-0.63014251	-0.28557147	0.04986561	2.67841211	-1.77555807
1331	13.30000000	0.34279365	0.04278536	0.03866364	-0.08654125	-0.31014894	0.07872470	-0.17567846	0.06827972	-1.09641477	-0.13894491	0.05977037	-0.37917016	-0.07782238	0.36267071	-2.65477902	-0.70315700	-0.42775728	0.12096427	-0.06372604	-0.75751969	-0.30389477	0.03005908	2.38555326	-1.51595634
1332	13.31000000	0.29276795	0.03864518	0.04198157	-0.11748643	-0.35429812	0.07210042	-0.22277225	0.07529811	-1.17999372	-0.19298300	0.14720053	-0.33839834	0.09194665	0.21630838	-2.29805462	-0.36782737	-0.66858426	0.02358170	-0.06317102	-0.91057869	-0.33325865	0.12193592	2.03650077	-1.11148386
1333	13.32000000	0.24540947	0.04498692	0.02888700	-0.13381022	-0.36940645	0.08043446	-0.30300302	0.07088180	-1.25927947	-0.27420224	0.21108864	-0.29105549	0.17690089	0.02111568	-1.77238842	0.07279881	-0.69726515	-0.00253625	-0.03789338	-1.06931674	-0.36214733	0.32837248	1.68976004	-0.66296071
1334	13.33000000	0.19131603	0.06210549	0.00673462	-0.15002038	-0.37176393	0.09325346	-0.35130184	0.06560329	-1.33115012	-0.33542797	0.25380408	-0.23101059	0.33382406	-0.13316342	-1.20831799	0.51606500	-0.54449800	-0.05250066	-0.01504590	-1.23377312	-0.38794846	0.43728179	1.29631996	-0.18643096
1335	13.34000000	0.12690425	0.07239291	-0.01658309	-0.18672746	-0.37858145	0.11799701	-0.38175646	0.06006868	-1.40560715	-0.34406330	0.23376310	-0.15041746	0.45030591	-0.25846013	-0.67580891	0.82961942	-0.34071146	-0.06124943	-0.00710721	-1.43630062	-0.41568439	-0.23813649	0.55780746	0.33737650
1336	13.35000000	0.06068283	0.07587693	-0.02519511	-0.20871791	-0.36471679	0.16635343	-0.39617957	0.06415814	-1.50330886	-0.30073872	0.21717203	-0.05998301	0.46564867	-0.36012606	-0.07965415	0.91742906	-0.23289078	-0.15546528	0.05550613	-1.66754652	-0.44073540	-0.45705385	-0.35645989	0.51899407
1337	13.36000000	-0.00837684	0.08433537	-0.03709306	-0.21405060	-0.32717896	0.21128320	-0.38888910	0.06533500	-1.63056230	-0.27461007	0.21690148	0.03734992	0.61155809	-0.33754227	0.69050033	0.98922482	-0.18943570	-0.29480934	0.02275291	-1.95277451	-0.45319373	-0.48129923	-1.33614905	0.34110437
1338	13.37000000	-0.08444288	0.10069602	-0.04381412	-0.24615166	-0.29106984	0.25972491	-0.40647593	0.07813776	-1.75591746	-0.31879294	0.22796449	0.15562537	0.52743762	-0.36069222	1.49108317	1.16715930	-0.11635870	-0.42218389	0.01808000	-2.27942210	-0.46809884	-0.19200656	-2.45877897	0.08679887
1339	13.38000000	-0.16511623	0.10862775	-0.03645061	-0.28639272	-0.23845315	0.30590063	-0.34376901	0.11382488	-1.85894800	-0.36433437	0.28886174	0.27428813	0.05387504	-0.41292432	2.21865984	1.23251601	-0.14665462	-0.38380516	0.15007535	-2.67730586	-0.45996348	0.29272193	-2.69090960	0.02437180
1340	13.39000000	-0.24376471	0.11265991	-0.06051289	-0.35607796	-0.13606355	0.32300345	-0.23628251	0.13625252	-1.99493168	-0.40108187	0.35952199	0.43603789	-0.46008500	-0.72248361	2.24313316	0.81211652	-0.53621132	-0.16417767	0.11891905	-3.13974967	-0.40794444	-0.16996780	-1.57153432	0.28970620
1341	13.40000000	-0.30207109	0.12160124	-0.10373974	-0.47369903	-0.06327545	0.28861686	-0.22825285	0.12283739	-2.18799335	-0.48539959	0.48327479	0.61050674	-0.12579361	-0.73128562	1.23918930	0.58475448	-0.71654384	-0.00771335	0.01262397	-3.64087577	-0.35737586	-0.26587419	-1.19773768	0.69736974
1342	13.41000000	-0.34224777	0.12169364	-0.14414835	-0.49029698	-0.03583567	0.17204701	-0.33136539	0.08433727	-2.34814076	-0.52392529	0.67159927	0.78132689	0.00868398	-0.29456491	0.73951218	0.67908336	-0.39265293	0.20679960	-0.06085109	-4.13563803	-0.36175198	0.39837056	-1.55070145	0.62571127
1343	13.42000000	-0.40334157	0.09752658	-0.18497473	-0.47396119	-0.05205433	0.01366866	-0.56602896	-0.02260085	-2.43790285	-0.43172623	0.82104179	0.96966649	-0.62918559	-0.11285286	1.09854843	0.56490380	0.01629175	0.54944404	-0.16024392	-4.70062368	-0.41961770	0.28975943	-1.33530921	0.23868683
1344	13.43000000	-0.45676566	0.09133660	-0.19750657	-0.48346342	-0.05666847	-0.14382741	-0.88400228	-0.12226126	-2.52854589	-0.34176163	0.93026020	1.19637613	-1.28548603	-0.35258963	1.35377070	0.15450090	0.03804808	0.54102041	-0.28856700	-5.17948399	-0.50120434	-0.11813482	-0.86760821	0.14093802
1345	13.44000000	-0.49998702	0.09836843	-0.21675980	-0.49871133	-0.04433452	-0.25326133	-1.20404906	-0.16067156	-2.63510764	-0.28241004	1.07288707	1.43042446	-1.36482293	-0.56977159	1.27558819	-0.35875460	-0.16389050	0.39760643	-0.22625574	-5.74557346	-0.73957208	-0.06056399	-0.64521350	0.24401026
1346	13.45000000	-0.55069598	0.08480844	-0.24405568	-0.51357661	-0.04231545	-0.34277503	-1.26690930	-0.18911395	-2.68636041	-0.24464764	1.17175865	1.63240240	-0.58744574	-0.60761883	1.22496783	-0.53313921	-0.09674013	0.27823624	-0.19485389	-5.87850738	-0.97761626	-0.10082738	-0.46503738	0.22617966
1347	13.46000000	-0.60976368	0.05353289	-0.26732335	-0.52975110	-0.00886853	-0.37241599	-0.87369293	-0.19271375	-2.68480128	-0.37067368	1.27080111	1.84953304	0.22650660	-0.48866244	1.10056928	-0.78937791	-0.09001011	0.33817995	-0.14429878	-5.94020770	-1.13465966	-0.25942777	-0.35991730	0.16056202
1348	13.47000000	-0.66563523	0.03238522	-0.29339584	-0.53905844	0.06970140	-0.37609369	-0.00250189	-0.20752251	-2.61497996	-0.60808978	1.48413261	2.01796715	0.36986929	-0.38485786	0.94173882	-1.00148653	-0.27595660	0.52260652	-0.20122848	-5.64067442	-1.24618172	-0.30785510	-0.31569001	0.12508936
1349	13.48000000	-0.71984339	0.00479901	-0.34941757	-0.52614435	0.15340129	-0.37498275	0.89189676	-0.30235183	-2.57698346	-0.83926804	1.64286110	2.05925108	-0.00549337	-0.38875552	0.89057758	-0.77813607	-0.38642306	0.62688950	0.01817727	-5.03450996	-1.49131508	-0.33069253	-0.32917402	0.10435928
1350	13.49000000	-0.74999754	-0.01693875	-0.40685238	-0.49133641	0.23710840	-0.37492740	1.44677402	-0.43772164	-2.61560670	-1.00538247	1.62149770	2.05864181	-0.25666143	-0.38595390	0.81247398	-0.41391940	-0.40665589	0.62980948	0.60333734	-4.39607859	-1.61296316	-0.36720609	-0.33130487	0.12085240
1351	13.50000000	-0.74107469	-0.03599704	-0.44368711	-0.42134884	0.29015078	-0.37670790	1.54223049	-0.54997717	-2.56778601	-1.05094992	1.56733095	2.05640871	-0.09144411	-0.34674462	0.78316847	-0.15043795	-0.39247109	0.65035024	0.92970151	-3.92881417	-1.48474991	-0.35823904	-0.26843982	0.09091976
1352	13.51000000	-0.70119857	-0.05577202	-0.43564212	-0.33718461	0.31417860	-0.36427828	1.15553523	-0.47742207	-2.31661716	-0.92749234	1.42964075	2.02562162	0.08468776	-0.30241041	0.80193471	-0.06870564	-0.37573387	0.65405184	0.83949005	-3.18033185	-1.29645057	-0.31822735	-0.20031554	0.05281247
1353	13.52000000	-0.68063271	-0.07764920	-0.42473977	-0.25786001	0.31353894	-0.32445360	0.47219649	-0.28942174	-1.93627777	-0.74241677	1.14751358	1.95564909	0.19103101	-0.26042132	0.74485353	-0.11676905	-0.34683273	0.63070518	-0.52914923	-2.14562795	-0.94935825	-0.22361014	-0.14169536	0.03553984
1354	13.53000000	-0.69152631	-0.08441284	-0.43912268	-0.18643502	0.27794912	-0.27292692	-0.26272691	-0.14770858	-1.52764606	-0.45960545	0.90976915	1.82043946	0.20240092	-0.22813005	0.69600709	-0.21274881	-0.30112917	0.62065562	-0.70994183	-0.75026370	-0.65385789	-0.18174299	-0.11453020	0.02790586
1355	13.54000000	-0.69601286	-0.07944020	-0.44898428	-0.11501945	0.23689594	-0.19765194	-0.77118216	-0.11416706	-0.99658473	-0.17068660	0.81532582	1.63003503	0.05155943	-0.20568223	0.68849524	-0.29164022	-0.28498781	0.58501013	-0.54009337	-0.27489707	-0.60820511	-0.16180607	-0.10857488	0.01555212
1356	13.55000000	-0.68420543	-0.09473117	-0.43036239	-0.09548562	0.22363777	-0.06426110	-1.83886422	-0.00743288	-0.18609212	-0.06698909	0.70464064	1.49870679	-0.07452940	-0.20481910	0.69127401	-0.29812686	-0.29755827	0.54504248	-0.06401027	0.66439819	-0.41482212	-0.14159131	-0.11902022	0.02564520
1357	13.56000000	-0.67646134	-0.11557951	-0.39804920	-0.08700053	0.19967844	0.06809839	-2.61856816	0.19474696	0.57536781	0.02572707	0.50758214	1.44533156	-0.01816893	-0.17198106	0.64656655	-0.19078415	-0.31510891	0.54674384	0.21995919	1.43459137	-0.16338567	-0.14422102	-0.13887168	0.02964037
1358	13.57000000	-0.67309688	-0.14016717	-0.37015285	-0.09456093	0.16335871	0.20252662	-2.03978568	0.30791878	0.99613378	0.30616768	0.40900757	1.38549690	0.06116879	-0.13580789	0.62226279	-0.08253563	-0.32965128	0.58603762	-0.09733718	1.59875512	0.07148764	-0.15687009	-0.13894883	0.04034442
1359	13.58000000	-0.67205805	-0.15153187	-0.33067184	-0.08365075	0.12446472	0.27761369	-1.32474222	0.25149338	1.28935157	0.60128907	0.41101144	1.32565482	0.06647491	-0.11695829	0.61005106	-0.02503277	-0.34433057	0.61184869	-0.17166092	1.98717550	0.32570759	-0.13697852	-0.13158355	0.04991581
